<?xml version="1.0" encoding="utf-8"?>
<!-- Generator: Adobe Illustrator 21.0.0, SVG Export Plug-In . SVG Version: 6.00 Build 0)  -->
<svg version="1.1" id="Layer_1" xmlns="http://www.w3.org/2000/svg" xmlns:xlink="http://www.w3.org/1999/xlink" x="0px" y="0px"
	 viewBox="0 0 6100.2 3567.5" style="enable-background:new 0 0 6100.2 3567.5;" xml:space="preserve">
<style type="text/css">
	.st0{fill:#FFFFFF;}
</style>
<g>
	<g>
		<g>
			<path class="st0" d="M120.1,3080.5c-62.3,0-113-50.7-113-113v-2846c0-62.3,50.7-113,113-113h4238c62.3,0,113,50.7,113,113v2846
				c0,62.3-50.7,113-113,113H120.1z"/>
			<path d="M4358.1,3086h-4238c-65.3,0-118.5-53.2-118.5-118.5v-2846C1.6,56.2,54.8,3,120.1,3h4238c65.3,0,118.5,53.2,118.5,118.5
				v2846C4476.6,3032.9,4423.4,3086,4358.1,3086z M120.1,14C60.8,14,12.6,62.2,12.6,121.5v2846c0,59.3,48.2,107.5,107.5,107.5h4238
				c59.3,0,107.5-48.2,107.5-107.5v-2846c0-59.3-48.2-107.5-107.5-107.5H120.1z"/>
		</g>
		<g>
			<path d="M4358.1,9.5c29.9,0,58,11.6,79.2,32.8s32.8,49.3,32.8,79.2v2846c0,29.9-11.6,58-32.8,79.2
				c-21.2,21.2-49.3,32.8-79.2,32.8h-4238c-29.9,0-58-11.6-79.2-32.8s-32.8-49.3-32.8-79.2v-2846c0-29.9,11.6-58,32.8-79.2
				S90.2,9.5,120.1,9.5H4358.1 M4358.1,7.5h-4238c-63,0-114,51-114,114v2846c0,63,51,114,114,114h4238c63,0,114-51,114-114v-2846
				C4472.1,58.5,4421.1,7.5,4358.1,7.5L4358.1,7.5z"/>
			<path d="M4358.1,3087h-4238c-65.9,0-119.5-53.6-119.5-119.5v-2846C0.6,55.6,54.2,2,120.1,2h4238c65.9,0,119.5,53.6,119.5,119.5
				v2846C4477.6,3033.4,4424,3087,4358.1,3087z M120.1,15c-28.5,0-55.2,11.1-75.3,31.2c-20.1,20.1-31.2,46.9-31.2,75.3v2846
				c0,28.5,11.1,55.2,31.2,75.3c20.1,20.1,46.9,31.2,75.3,31.2h4238c28.5,0,55.2-11.1,75.3-31.2c20.1-20.1,31.2-46.9,31.2-75.3
				v-2846c0-28.5-11.1-55.2-31.2-75.3c-20.1-20.1-46.9-31.2-75.3-31.2H120.1z"/>
		</g>
	</g>
	<g>
		<g>
			<path class="st0" d="M7.1,2668V120c0-62.3,50.7-113,113-113h4238c62.3,0,113,50.7,113,113v2548H7.1z"/>
			<path d="M4476.6,2673.5H1.6V120C1.6,54.7,54.8,1.5,120.1,1.5h4238c65.3,0,118.5,53.2,118.5,118.5V2673.5z M12.6,2662.5h4453V120
				c0-59.3-48.2-107.5-107.5-107.5h-4238C60.8,12.5,12.6,60.7,12.6,120V2662.5z"/>
		</g>
		<g>
			<g>
				<path d="M4358.1,8c29.9,0,58,11.6,79.2,32.8c21.2,21.2,32.8,49.3,32.8,79.2v2547H8.1V120c0-29.9,11.6-58,32.8-79.2
					S90.2,8,120.1,8H4358.1 M4358.1,6h-4238c-63,0-114,51-114,114v2549h4466V120C4472.1,57,4421.1,6,4358.1,6L4358.1,6z"/>
				<path d="M4477.6,2674.5H0.6V120C0.6,54.1,54.2,0.5,120.1,0.5h4238c65.9,0,119.5,53.6,119.5,119.5V2674.5z M13.6,2661.5h4451V120
					c0-28.5-11.1-55.2-31.2-75.3c-20.1-20.1-46.9-31.2-75.3-31.2h-4238c-28.5,0-55.2,11.1-75.3,31.2C24.7,64.8,13.6,91.6,13.6,120
					V2661.5z"/>
			</g>
		</g>
	</g>
	<g>
		<g>
			<path class="st0" d="M2239.1,95.5c-7.2,0-13-5.8-13-13s5.8-13,13-13s13,5.8,13,13S2246.3,95.5,2239.1,95.5z"/>
			<path d="M2239.1,101c-10.2,0-18.5-8.3-18.5-18.5s8.3-18.5,18.5-18.5s18.5,8.3,18.5,18.5S2249.3,101,2239.1,101z M2239.1,75
				c-4.1,0-7.5,3.4-7.5,7.5s3.4,7.5,7.5,7.5s7.5-3.4,7.5-7.5S2243.2,75,2239.1,75z"/>
		</g>
		<g>
			<path d="M2239.1,70.5c6.6,0,12,5.4,12,12s-5.4,12-12,12s-12-5.4-12-12S2232.5,70.5,2239.1,70.5 M2239.1,68.5c-7.7,0-14,6.3-14,14
				s6.3,14,14,14s14-6.3,14-14S2246.8,68.5,2239.1,68.5L2239.1,68.5z"/>
			<path d="M2239.1,102c-10.8,0-19.5-8.7-19.5-19.5s8.7-19.5,19.5-19.5s19.5,8.7,19.5,19.5S2249.9,102,2239.1,102z M2239.1,76
				c-3.6,0-6.5,2.9-6.5,6.5s2.9,6.5,6.5,6.5s6.5-2.9,6.5-6.5S2242.7,76,2239.1,76z"/>
		</g>
	</g>
	<g>
		<g>
			<circle class="st0" cx="2183.1" cy="82.5" r="5.5"/>
			<path d="M2183.1,93.5c-6.1,0-11-4.9-11-11s4.9-11,11-11s11,4.9,11,11S2189.2,93.5,2183.1,93.5z"/>
		</g>
		<g>
			<path d="M2183.1,77.5c2.8,0,5,2.2,5,5s-2.2,5-5,5s-5-2.2-5-5S2180.3,77.5,2183.1,77.5 M2183.1,76.5c-3.3,0-6,2.7-6,6s2.7,6,6,6
				s6-2.7,6-6S2186.4,76.5,2183.1,76.5L2183.1,76.5z"/>
			<path d="M2183.1,94c-6.3,0-11.5-5.2-11.5-11.5s5.2-11.5,11.5-11.5s11.5,5.2,11.5,11.5S2189.4,94,2183.1,94z M2183.1,83
				c0.2,0,0.5-0.3,0.5-0.5s-0.3-0.5-0.5-0.5s-0.5,0.3-0.5,0.5S2182.9,83,2183.1,83z"/>
		</g>
	</g>
	<g>
		<g>
			<path class="st0" d="M1690.3,3536.5c15.9-3.4,30.7-10.9,43-22c17.1-15.5,27.7-36.6,30-59.5l36.7-374.5h878l36.7,374.5
				c2.3,22.9,12.9,44.1,30,59.5c12.3,11.1,27.1,18.6,43,22H1690.3z"/>
			<path d="M2839.7,3542H1638.3l50.9-10.9c15-3.2,29-10.4,40.5-20.7c16-14.5,26-34.4,28.2-56L1795,3075h888l37.2,379.5
				c2.2,21.7,12.2,41.5,28.2,55.9c11.5,10.3,25.4,17.5,40.5,20.7L2839.7,3542z M1719.9,3531h1038.3c-6.1-3.5-11.9-7.7-17.1-12.4
				c-18-16.3-29.3-38.6-31.8-63L2673,3086h-868l-36.2,369.5c-2.4,24.3-13.7,46.7-31.8,63C1731.7,3523.4,1726,3527.5,1719.9,3531z"/>
		</g>
		<g>
			<path d="M2677.1,3081.5l36.7,373.6c2.3,23.2,13.1,44.5,30.3,60.2c10.4,9.4,22.6,16.3,35.7,20.2H1698.2
				c13.2-4,25.4-10.8,35.7-20.2c17.3-15.6,28-37,30.3-60.2l36.7-373.6H2677.1 M2678.9,3079.5h-879.8l-36.8,375.4
				c-4.6,46.9-44.1,82.6-91.2,82.6h1135.8c-47.1,0-86.5-35.7-91.2-82.6L2678.9,3079.5L2678.9,3079.5z"/>
			<path d="M2806.9,3543H1671.1v-2h-10l10-3v-6c21.4,0,42-7.9,57.8-22.3c15.9-14.4,25.8-34,27.9-55.3l37.3-380.4h889.8l37.3,380.4
				c4.4,44.3,41.3,77.6,85.7,77.6v5.8l10.6,3.2h-10.6V3543z M1723.6,3530h1030.9c-5-3.1-9.7-6.7-14.1-10.6
				c-18.3-16.7-29.7-39.3-32.1-63.7l-36.2-368.6h-866.2l-36.2,368.6c-2.4,24.7-13.8,47.3-32.1,63.7
				C1733.2,3523.4,1728.6,3526.9,1723.6,3530z"/>
		</g>
	</g>
	<g>
		<g>
			<rect x="1440.1" y="3536.5" class="st0" width="1598" height="30"/>
			<path d="M3043.6,3572h-1609v-41h1609V3572z M1445.6,3561h1587v-19h-1587V3561z"/>
		</g>
		<g>
			<path d="M3037.1,3537.5v28h-1596v-28H3037.1 M3039.1,3535.5h-1600v32h1600V3535.5L3039.1,3535.5z"/>
			<path d="M3044.6,3573h-1611v-43h1611V3573z M1446.6,3560h1585v-17h-1585V3560z"/>
		</g>
	</g>
	<g id="Screen_1_">
		<g>
			<path class="st0" d="M191.1,2498.5c-0.6,0-1-0.4-1-1v-2304c0-0.6,0.4-1,1-1h4096c0.6,0,1,0.4,1,1v2304c0,0.6-0.4,1-1,1H191.1z"/>
			<path d="M4287.1,2504h-4096c-3.6,0-6.5-2.9-6.5-6.5v-2304c0-3.6,2.9-6.5,6.5-6.5h4096c3.6,0,6.5,2.9,6.5,6.5v2304
				C4293.6,2501.2,4290.8,2504,4287.1,2504z M195.6,2493h4087V198h-4087V2493z"/>
		</g>
		<g>
			<path d="M4287.1,193.5v2304h-4096v-2304H4287.1 M4287.1,191.5h-4096c-1.1,0-2,0.9-2,2v2304c0,1.1,0.9,2,2,2h4096c1.1,0,2-0.9,2-2
				v-2304C4289.1,192.4,4288.2,191.5,4287.1,191.5L4287.1,191.5z"/>
			<path d="M4287.1,2505h-4096c-2,0-3.8-0.8-5.1-2h-0.4v-0.4c-1.2-1.3-2-3.1-2-5.1v-2304c0-2,0.8-3.8,2-5.1V188h0.4
				c1.3-1.2,3.1-2,5.1-2h4096c2,0,3.8,0.8,5.1,2h0.4v0.4c1.2,1.3,2,3.1,2,5.1v2304c0,2-0.8,3.8-2,5.1v0.4h-0.4
				C4290.9,2504.3,4289.1,2505,4287.1,2505z M196.6,2492h4085V199h-4085V2492z"/>
		</g>
	</g>
</g>
</svg>
