<?xml version="1.0" encoding="utf-8"?>
<!-- Generator: Adobe Illustrator 21.0.0, SVG Export Plug-In . SVG Version: 6.00 Build 0)  -->
<svg version="1.1" id="Layer_1" xmlns="http://www.w3.org/2000/svg" xmlns:xlink="http://www.w3.org/1999/xlink" x="0px" y="0px"
	 viewBox="0 0 6100.2 3567.5" style="enable-background:new 0 0 6100.2 3567.5;" xml:space="preserve">
<style type="text/css">
	.st0{fill:#FFFFFF;}
	.st1{fill:#231F20;}
</style>
<g>
	<g>
		<g>
			<path class="st0" d="M3893.1,3566.5c-45.8,0-83-37.2-83-83v-2342c0-45.8,37.2-83,83-83h1604c45.8,0,83,37.2,83,83v2342
				c0,45.8-37.2,83-83,83H3893.1z"/>
			<path d="M5497.1,3570h-1604c-47.7,0-86.5-38.8-86.5-86.5v-2342c0-47.7,38.8-86.5,86.5-86.5h1604c47.7,0,86.5,38.8,86.5,86.5v2342
				C5583.6,3531.2,5544.8,3570,5497.1,3570z M3893.1,1062c-43.8,0-79.5,35.7-79.5,79.5v2342c0,43.8,35.7,79.5,79.5,79.5h1604
				c43.8,0,79.5-35.7,79.5-79.5v-2342c0-43.8-35.7-79.5-79.5-79.5H3893.1z"/>
		</g>
		<g>
			<path class="st1" d="M5497.1,1059.5c45.2,0,82,36.8,82,82v2342c0,45.2-36.8,82-82,82h-1604c-45.2,0-82-36.8-82-82v-2342
				c0-45.2,36.8-82,82-82H5497.1 M5497.1,1057.5h-1604c-46.4,0-84,37.6-84,84v2342c0,46.4,37.6,84,84,84h1604c46.4,0,84-37.6,84-84
				v-2342C5581.1,1095.1,5543.5,1057.5,5497.1,1057.5L5497.1,1057.5z"/>
			<path d="M5497.1,3571h-1604c-48.2,0-87.5-39.3-87.5-87.5v-2342c0-48.2,39.3-87.5,87.5-87.5h1604c48.2,0,87.5,39.3,87.5,87.5v2342
				C5584.6,3531.8,5545.4,3571,5497.1,3571z M3893.1,1063c-43.3,0-78.5,35.2-78.5,78.5v2342c0,43.3,35.2,78.5,78.5,78.5h1604
				c43.3,0,78.5-35.2,78.5-78.5v-2342c0-43.3-35.2-78.5-78.5-78.5H3893.1z"/>
		</g>
	</g>
	<g>
		<g>
			<path class="st0" d="M3895.1,3554.5c-40.3,0-73-32.7-73-73v-2338c0-40.3,32.7-73,73-73h1600c40.3,0,73,32.7,73,73v2338
				c0,40.3-32.7,73-73,73H3895.1z"/>
			<path d="M5495.1,3558h-1600c-42.2,0-76.5-34.3-76.5-76.5v-2338c0-42.2,34.3-76.5,76.5-76.5h1600c42.2,0,76.5,34.3,76.5,76.5v2338
				C5571.6,3523.7,5537.3,3558,5495.1,3558z M3895.1,1074c-38.3,0-69.5,31.2-69.5,69.5v2338c0,38.3,31.2,69.5,69.5,69.5h1600
				c38.3,0,69.5-31.2,69.5-69.5v-2338c0-38.3-31.2-69.5-69.5-69.5H3895.1z"/>
		</g>
		<g>
			<path class="st1" d="M5495.1,1071.5c39.7,0,72,32.3,72,72v2338c0,39.7-32.3,72-72,72h-1600c-39.7,0-72-32.3-72-72v-2338
				c0-39.7,32.3-72,72-72H5495.1 M5495.1,1069.5h-1600c-40.9,0-74,33.1-74,74v2338c0,40.9,33.1,74,74,74h1600c40.9,0,74-33.1,74-74
				v-2338C5569.1,1102.6,5536,1069.5,5495.1,1069.5L5495.1,1069.5z"/>
			<path d="M5495.1,3559h-1600c-42.7,0-77.5-34.8-77.5-77.5v-2338c0-42.7,34.8-77.5,77.5-77.5h1600c42.7,0,77.5,34.8,77.5,77.5v2338
				C5572.6,3524.3,5537.8,3559,5495.1,3559z M3895.1,1075c-37.8,0-68.5,30.7-68.5,68.5v2338c0,37.8,30.7,68.5,68.5,68.5h1600
				c37.8,0,68.5-30.7,68.5-68.5v-2338c0-37.8-30.7-68.5-68.5-68.5H3895.1z"/>
		</g>
	</g>
	<g>
		<g>
			<path class="st0" d="M3927.2,3337.4c-0.6,0-1-0.4-1-1l-0.1-2048c0-0.3,0.1-0.5,0.3-0.7s0.4-0.3,0.7-0.3h1536c0.6,0,1,0.4,1,1
				v2048c0,0.6-0.4,1-1,1H3927.2z"/>
			<path d="M5463.1,3340.9H3927.2c-2.5,0-4.5-2-4.5-4.5l-0.1-2048c0-0.8,0.2-2.1,1.3-3.2c1.1-1.1,2.3-1.3,3.2-1.3h1536
				c2.5,0,4.5,2,4.5,4.5v2048C5467.6,3338.9,5465.6,3340.9,5463.1,3340.9z M3929.7,3333.9h1530.9v-2043h-1531L3929.7,3333.9z"/>
		</g>
		<g>
			<path class="st1" d="M5463.1,1288.4v2048H3927.2l-0.1-2048L5463.1,1288.4 M5463.1,1286.4h-1536c-0.5,0-1,0.2-1.4,0.6
				s-0.6,0.9-0.6,1.4l0.1,2048c0,1.1,0.9,2,2,2h1535.9c1.1,0,2-0.9,2-2v-2048C5465.1,1287.3,5464.2,1286.4,5463.1,1286.4
				L5463.1,1286.4z"/>
			<path d="M5463.1,3341.9H3927.2c-3,0-5.5-2.5-5.5-5.5l-0.1-2048c0-1.4,0.6-2.8,1.6-3.9c1.1-1.1,2.4-1.6,3.9-1.6h1536
				c3,0,5.5,2.5,5.5,5.5v2048C5468.6,3339.5,5466.1,3341.9,5463.1,3341.9z M3930.7,3332.9h1528.9v-2041h-1529L3930.7,3332.9z"/>
		</g>
	</g>
	<g>
		<g>
			<path class="st0" d="M4695.1,3515.5c-30.3,0-55-24.7-55-55s24.7-55,55-55s55,24.7,55,55S4725.4,3515.5,4695.1,3515.5z"/>
			<path d="M4695.1,3519c-32.3,0-58.5-26.2-58.5-58.5s26.2-58.5,58.5-58.5s58.5,26.2,58.5,58.5S4727.4,3519,4695.1,3519z
				 M4695.1,3409c-28.4,0-51.5,23.1-51.5,51.5s23.1,51.5,51.5,51.5s51.5-23.1,51.5-51.5S4723.5,3409,4695.1,3409z"/>
		</g>
		<g>
			<g>
				<path class="st1" d="M4695.1,3406.5c29.8,0,54,24.2,54,54s-24.2,54-54,54s-54-24.2-54-54S4665.3,3406.5,4695.1,3406.5
					 M4695.1,3404.5L4695.1,3404.5c-30.9,0-56,25.1-56,56l0,0c0,30.9,25.1,56,56,56l0,0c30.9,0,56-25.1,56-56l0,0
					C4751.1,3429.6,4726,3404.5,4695.1,3404.5L4695.1,3404.5z"/>
				<path d="M4695.1,3520c-32.8,0-59.5-26.7-59.5-59.5s26.7-59.5,59.5-59.5s59.5,26.7,59.5,59.5S4727.9,3520,4695.1,3520z
					 M4695.1,3410c-27.8,0-50.5,22.7-50.5,50.5s22.7,50.5,50.5,50.5s50.5-22.7,50.5-50.5S4723,3410,4695.1,3410z"/>
			</g>
		</g>
	</g>
	<g>
		<g>
			<path class="st0" d="M4695.1,3506.5c-25.4,0-46-20.6-46-46s20.6-46,46-46s46,20.6,46,46S4720.4,3506.5,4695.1,3506.5
				L4695.1,3506.5z"/>
			<path d="M4695.1,3510c-27.3,0-49.5-22.2-49.5-49.5s22.2-49.5,49.5-49.5s49.5,22.2,49.5,49.5S4722.4,3510,4695.1,3510z
				 M4695.1,3418c-23.4,0-42.5,19.1-42.5,42.5s19.1,42.5,42.5,42.5s42.5-19.1,42.5-42.5S4718.5,3418,4695.1,3418z"/>
		</g>
		<g>
			<g>
				<path class="st1" d="M4695.1,3415.5c24.8,0,45,20.2,45,45s-20.2,45-45,45s-45-20.2-45-45S4670.3,3415.5,4695.1,3415.5
					L4695.1,3415.5 M4695.1,3413.5L4695.1,3413.5c-26,0-47,21-47,47l0,0c0,26,21,47,47,47l0,0c26,0,47-21,47-47l0,0
					C4742.1,3434.5,4721,3413.5,4695.1,3413.5L4695.1,3413.5z"/>
				<path d="M4695.1,3511c-27.8,0-50.5-22.7-50.5-50.5s22.7-50.5,50.5-50.5s50.5,22.7,50.5,50.5S4723,3511,4695.1,3511z
					 M4695.1,3419c-22.9,0-41.5,18.6-41.5,41.5s18.6,41.5,41.5,41.5s41.5-18.6,41.5-41.5S4718,3419,4695.1,3419z"/>
			</g>
		</g>
	</g>
	<g>
		<g>
			<path class="st0" d="M4695.1,1191.5c-7.2,0-13-5.8-13-13s5.8-13,13-13s13,5.8,13,13S4702.2,1191.5,4695.1,1191.5z"/>
			<path d="M4695.1,1195c-9.1,0-16.5-7.4-16.5-16.5s7.4-16.5,16.5-16.5s16.5,7.4,16.5,16.5S4704.2,1195,4695.1,1195z M4695.1,1169
				c-5.2,0-9.5,4.3-9.5,9.5s4.3,9.5,9.5,9.5s9.5-4.3,9.5-9.5S4700.3,1169,4695.1,1169z"/>
		</g>
		<g>
			<g>
				<path class="st1" d="M4695.1,1166.5c6.6,0,12,5.4,12,12s-5.4,12-12,12s-12-5.4-12-12S4688.5,1166.5,4695.1,1166.5
					 M4695.1,1164.5c-7.7,0-14,6.3-14,14s6.3,14,14,14s14-6.3,14-14S4702.8,1164.5,4695.1,1164.5L4695.1,1164.5z"/>
				<path d="M4695.1,1196c-9.6,0-17.5-7.9-17.5-17.5s7.9-17.5,17.5-17.5s17.5,7.9,17.5,17.5S4704.8,1196,4695.1,1196z M4695.1,1170
					c-4.7,0-8.5,3.8-8.5,8.5s3.8,8.5,8.5,8.5s8.5-3.8,8.5-8.5S4699.8,1170,4695.1,1170z"/>
			</g>
		</g>
	</g>
</g>
</svg>
