<?xml version="1.0" encoding="utf-8"?>
<!-- Generator: Adobe Illustrator 21.0.0, SVG Export Plug-In . SVG Version: 6.00 Build 0)  -->
<svg version="1.1" id="Layer_1" xmlns="http://www.w3.org/2000/svg" xmlns:xlink="http://www.w3.org/1999/xlink" x="0px" y="0px"
	 viewBox="0 0 6100.2 3567.5" style="enable-background:new 0 0 6100.2 3567.5;" xml:space="preserve">
<style type="text/css">
	.st0{fill:#FFFFFF;}
	.st1{fill:#231F20;}
</style>
<g>
	<g>
		<g>
			<path class="st0" d="M5712.5,3566.5c-2.5-2.6-6.1-4-10.4-4h-82c-4.3,0-7.9,1.4-10.4,4h-192.3c-4.8-2.6-11.1-4-18.3-4
				c-7.1,0-13.4,1.4-18.3,4h-14.7c-73.3,0-133-59.7-133-133v-956.6c2.8-3.3,4-6.7,4-11.4v-281c0-4.6-1.2-8.1-4-11.4v-237.6
				c0-73.3,59.7-133,133-133h590c73.3,0,133,59.7,133,133v232.6c-2.6,3-4,6-4,12.4v122c0,5.4,1.2,9,4,12.4v1118.6
				c0,73.3-59.7,133-133,133H5712.5z"/>
			<path d="M5956.1,3570H5711l-1-1.1c-1.8-1.9-4.6-2.9-7.9-2.9h-82c-3.3,0-6,1-7.9,2.9l-1,1.1h-194.7l-0.8-0.4
				c-4.3-2.3-10.1-3.6-16.6-3.6c-6.5,0-12.2,1.2-16.7,3.6l-0.8,0.4h-15.6c-75.3,0-136.5-61.2-136.5-136.5v-957.9l0.8-1
				c2.3-2.7,3.2-5.3,3.2-9.1v-281c0-3.8-0.9-6.5-3.2-9.1l-0.8-1v-238.9c0-75.3,61.2-136.5,136.5-136.5h590
				c75.3,0,136.5,61.2,136.5,136.5v233.9l-0.9,1c-2.1,2.4-3.1,4.6-3.1,10.1v122c0,4.5,0.9,7.4,3.2,10.2l0.8,1v1119.9
				C6092.6,3508.8,6031.4,3570,5956.1,3570z M5713.9,3563h242.2c71.4,0,129.5-58.1,129.5-129.5V2316.1c-2.8-3.8-4-7.9-4-13.6v-122
				c0-6.1,1.1-9.9,4-13.7v-231.3c0-71.4-58.1-129.5-129.5-129.5h-590c-71.4,0-129.5,58.1-129.5,129.5v236.4c2.7,3.6,4,7.7,4,12.6
				v281c0,5-1.2,9-4,12.6v955.4c0,71.4,58.1,129.5,129.5,129.5h13.9c5.3-2.6,11.9-4,19.1-4c7.3,0,13.9,1.4,19.2,4h190.1
				c3.1-2.6,7.1-4,11.8-4h82C5706.8,3559,5710.8,3560.4,5713.9,3563z"/>
		</g>
		<g>
			<path class="st1" d="M5956.1,1803.5c35.3,0,68.4,13.7,93.3,38.7c24.9,24.9,38.7,58.1,38.7,93.3v232.3c-2.9,3.6-4,7-4,12.7v122
				c0,5.5,1.2,9.2,4,12.7v1118.3c0,35.3-13.7,68.4-38.7,93.3c-24.9,24.9-58.1,38.7-93.3,38.7H5713c-2.7-2.6-6.4-4-10.8-4h-82
				c-4.4,0-8.1,1.4-10.8,4h-191.6c-5-2.6-11.3-4-18.5-4s-13.6,1.4-18.5,4h-14.7c-35.3,0-68.4-13.7-93.3-38.7
				c-24.9-24.9-38.7-58.1-38.7-93.3v-956.3c2.8-3.4,4-7,4-11.7v-281c0-4.7-1.2-8.3-4-11.7v-237.3c0-35.3,13.7-68.4,38.7-93.3
				c24.9-24.9,58.1-38.7,93.3-38.7H5956.1 M5956.1,1801.5h-590c-74,0-134,60-134,134v238c2.8,3.2,4,6.4,4,11v281c0,4.6-1.2,7.8-4,11
				v957c0,74,60,134,134,134h15c5.2-2.9,11.7-4,18-4s12.8,1.1,18,4h193c2.5-2.8,6-4,10-4h82c4,0,7.5,1.2,10,4h244
				c74,0,134-60,134-134v-1119c-2.8-3.2-4-6.5-4-12v-122c0-6,1.2-8.8,4-12v-233C6090.1,1861.5,6030.1,1801.5,5956.1,1801.5
				L5956.1,1801.5z"/>
			<path d="M5956.1,3571h-245.6l-1-1.2c-1.7-1.9-4.2-2.8-7.4-2.8h-82c-3.2,0-5.7,1-7.4,2.8l-1,1.2h-195.5l-0.8-0.4
				c-4.2-2.3-9.8-3.6-16.3-3.6s-12.1,1.2-16.3,3.6l-0.8,0.4h-15.9c-75.8,0-137.5-61.7-137.5-137.5v-958.3l0.9-1
				c2.3-2.6,3.1-5,3.1-8.7v-281c0-3.7-0.8-6.1-3.1-8.7l-0.9-1v-239.3c0-75.8,61.7-137.5,137.5-137.5h590
				c75.8,0,137.5,61.7,137.5,137.5v234.3l-0.9,1c-2.2,2.5-3.1,4.5-3.1,9.7v122c0,5.1,1.1,7.4,3.1,9.7l0.9,1v1120.3
				C6093.6,3509.3,6031.9,3571,5956.1,3571z M5714.3,3562h241.8c34.3,0,66.5-13.4,90.8-37.7c24.3-24.2,37.7-56.5,37.7-90.8V2316.4
				c-2.8-3.9-4-8.1-4-13.9v-122c0-5.9,1.1-10,4-13.9v-231.1c0-34.3-13.4-66.5-37.7-90.8c-24.2-24.3-56.5-37.7-90.8-37.7h-590
				c-34.3,0-66.5,13.4-90.8,37.7c-24.3,24.2-37.7,56.5-37.7,90.8v236.1c2.7,3.7,4,7.8,4,12.9v281c0,5.1-1.3,9.2-4,12.9v955.1
				c0,34.3,13.4,66.5,37.7,90.8c24.2,24.3,56.5,37.7,90.8,37.7h13.9c5.3-2.6,12-4,19.3-4c7.3,0,13.9,1.4,19.3,4h189.5
				c3.2-2.6,7.4-4,12.1-4h82C5706.9,3558,5711.1,3559.4,5714.3,3562z"/>
		</g>
	</g>
	<g>
		<g>
			<path class="st0" d="M5367.1,3548.5c-64,0-116-52-116-116v-1496c0-64,52-116,116-116h588c64,0,116,52,116,116v1496
				c0,64-52,116-116,116H5367.1z"/>
			<path d="M5955.1,3552h-588c-65.9,0-119.5-53.6-119.5-119.5v-1496c0-65.9,53.6-119.5,119.5-119.5h588
				c65.9,0,119.5,53.6,119.5,119.5v1496C6074.6,3498.4,6021,3552,5955.1,3552z M5367.1,1824c-62,0-112.5,50.5-112.5,112.5v1496
				c0,62,50.5,112.5,112.5,112.5h588c62,0,112.5-50.5,112.5-112.5v-1496c0-62-50.5-112.5-112.5-112.5H5367.1z"/>
		</g>
		<g>
			<path class="st1" d="M5955.1,1821.5c30.7,0,59.6,12,81.3,33.7s33.7,50.6,33.7,81.3v1496c0,30.7-12,59.6-33.7,81.3
				s-50.6,33.7-81.3,33.7h-588c-30.7,0-59.6-12-81.3-33.7s-33.7-50.6-33.7-81.3v-1496c0-30.7,12-59.6,33.7-81.3s50.6-33.7,81.3-33.7
				H5955.1 M5955.1,1819.5h-588c-64.6,0-117,52.4-117,117v1496c0,64.6,52.4,117,117,117h588c64.6,0,117-52.4,117-117v-1496
				C6072.1,1871.9,6019.7,1819.5,5955.1,1819.5L5955.1,1819.5z"/>
			<path d="M5955.1,3553h-588c-66.4,0-120.5-54.1-120.5-120.5v-1496c0-66.4,54.1-120.5,120.5-120.5h588
				c66.4,0,120.5,54.1,120.5,120.5v1496C6075.6,3499,6021.6,3553,5955.1,3553z M5367.1,1825c-29.8,0-57.8,11.6-78.8,32.7
				c-21.1,21.1-32.7,49.1-32.7,78.8v1496c0,29.8,11.6,57.8,32.7,78.8c21.1,21.1,49.1,32.7,78.8,32.7h588c29.8,0,57.8-11.6,78.8-32.7
				c21.1-21.1,32.7-49.1,32.7-78.8v-1496c0-29.8-11.6-57.8-32.7-78.8c-21.1-21.1-49.1-32.7-78.8-32.7H5367.1z"/>
		</g>
	</g>
	<g>
		<g>
			<path class="st0" d="M5661.1,3514.5c-35.3,0-64-28.7-64-64s28.7-64,64-64s64,28.7,64,64S5696.4,3514.5,5661.1,3514.5z"/>
			<path d="M5661.1,3518c-37.2,0-67.5-30.3-67.5-67.5s30.3-67.5,67.5-67.5s67.5,30.3,67.5,67.5S5698.3,3518,5661.1,3518z
				 M5661.1,3390c-33.4,0-60.5,27.1-60.5,60.5s27.1,60.5,60.5,60.5s60.5-27.1,60.5-60.5S5694.5,3390,5661.1,3390z"/>
		</g>
		<g>
			<g>
				<path class="st1" d="M5661.1,3387.5c34.7,0,63,28.3,63,63s-28.3,63-63,63s-63-28.3-63-63S5626.3,3387.5,5661.1,3387.5
					 M5661.1,3385.5c-35.9,0-65,29.1-65,65l0,0c0,35.9,29.1,65,65,65s65-29.1,65-65l0,0C5726.1,3414.6,5697,3385.5,5661.1,3385.5
					L5661.1,3385.5z"/>
				<path d="M5661.1,3519c-37.8,0-68.5-30.7-68.5-68.5s30.7-68.5,68.5-68.5s68.5,30.7,68.5,68.5S5698.9,3519,5661.1,3519z
					 M5661.1,3391c-32.8,0-59.5,26.7-59.5,59.5s26.7,59.5,59.5,59.5s59.5-26.7,59.5-59.5S5693.9,3391,5661.1,3391z"/>
			</g>
		</g>
	</g>
	<g>
		<g>
			<path class="st0" d="M5661.1,3504.5c-29.8,0-54-24.2-54-54s24.2-54,54-54s54,24.2,54,54S5690.9,3504.5,5661.1,3504.5z"/>
			<path d="M5661.1,3508c-31.7,0-57.5-25.8-57.5-57.5s25.8-57.5,57.5-57.5s57.5,25.8,57.5,57.5S5692.8,3508,5661.1,3508z
				 M5661.1,3400c-27.8,0-50.5,22.7-50.5,50.5s22.7,50.5,50.5,50.5s50.5-22.7,50.5-50.5S5689,3400,5661.1,3400z"/>
		</g>
		<g>
			<g>
				<path class="st1" d="M5661.1,3397.5c29.2,0,53,23.8,53,53s-23.8,53-53,53s-53-23.8-53-53S5631.9,3397.5,5661.1,3397.5
					 M5661.1,3395.5c-30.4,0-55,24.6-55,55l0,0c0,30.4,24.6,55,55,55s55-24.6,55-55l0,0C5716.1,3420.1,5691.5,3395.5,5661.1,3395.5
					L5661.1,3395.5z"/>
				<path d="M5661.1,3509c-32.3,0-58.5-26.2-58.5-58.5s26.2-58.5,58.5-58.5s58.5,26.2,58.5,58.5S5693.4,3509,5661.1,3509z
					 M5661.1,3401c-27.3,0-49.5,22.2-49.5,49.5s22.2,49.5,49.5,49.5s49.5-22.2,49.5-49.5S5688.4,3401,5661.1,3401z"/>
			</g>
		</g>
	</g>
	<g>
		<g>
			<path class="st0" d="M5600.1,1923.5c-4.4,0-8-3.6-8-8s3.6-8,8-8h122c4.4,0,8,3.6,8,8s-3.6,8-8,8H5600.1z"/>
			<path d="M5722.1,1927h-122c-6.3,0-11.5-5.2-11.5-11.5s5.2-11.5,11.5-11.5h122c6.3,0,11.5,5.2,11.5,11.5S5728.4,1927,5722.1,1927z
				 M5600.1,1911c-2.5,0-4.5,2-4.5,4.5s2,4.5,4.5,4.5h122c2.5,0,4.5-2,4.5-4.5s-2-4.5-4.5-4.5H5600.1z"/>
		</g>
		<g>
			<g>
				<path class="st1" d="M5722.1,1908.5c3.9,0,7,3.1,7,7s-3.1,7-7,7h-122c-3.9,0-7-3.1-7-7s3.1-7,7-7H5722.1 M5722.1,1906.5h-122
					c-5,0-9,4-9,9l0,0c0,5,4,9,9,9h122c5,0,9-4,9-9l0,0C5731.1,1910.5,5727.1,1906.5,5722.1,1906.5L5722.1,1906.5z"/>
				<path d="M5722.1,1928h-122c-6.9,0-12.5-5.6-12.5-12.5s5.6-12.5,12.5-12.5h122c6.9,0,12.5,5.6,12.5,12.5S5729,1928,5722.1,1928z
					 M5600.1,1912c-2,0-3.5,1.5-3.5,3.5s1.5,3.5,3.5,3.5h122c2,0,3.5-1.5,3.5-3.5s-1.5-3.5-3.5-3.5H5600.1z"/>
			</g>
		</g>
	</g>
	<g>
		<g>
			<path class="st0" d="M5532.1,1930.5c-8.3,0-15-6.7-15-15s6.7-15,15-15s15,6.7,15,15S5540.4,1930.5,5532.1,1930.5z"/>
			<path d="M5532.1,1934c-10.2,0-18.5-8.3-18.5-18.5s8.3-18.5,18.5-18.5s18.5,8.3,18.5,18.5S5542.3,1934,5532.1,1934z M5532.1,1904
				c-6.3,0-11.5,5.2-11.5,11.5s5.2,11.5,11.5,11.5s11.5-5.2,11.5-11.5S5538.4,1904,5532.1,1904z"/>
		</g>
		<g>
			<g>
				<path class="st1" d="M5532.1,1901.5c7.7,0,14,6.3,14,14s-6.3,14-14,14s-14-6.3-14-14S5524.4,1901.5,5532.1,1901.5
					 M5532.1,1899.5c-8.8,0-16,7.2-16,16l0,0c0,8.8,7.2,16,16,16s16-7.2,16-16l0,0C5548.1,1906.7,5540.9,1899.5,5532.1,1899.5
					L5532.1,1899.5z"/>
				<path d="M5532.1,1935c-10.8,0-19.5-8.7-19.5-19.5s8.7-19.5,19.5-19.5s19.5,8.7,19.5,19.5S5542.9,1935,5532.1,1935z M5532.1,1905
					c-5.8,0-10.5,4.7-10.5,10.5s4.7,10.5,10.5,10.5s10.5-4.7,10.5-10.5S5537.9,1905,5532.1,1905z"/>
			</g>
		</g>
	</g>
	<g>
		<g>
			<path class="st0" d="M5661.1,1870.5c-5.5,0-10-4.5-10-10s4.5-10,10-10s10,4.5,10,10S5666.6,1870.5,5661.1,1870.5z"/>
			<path d="M5661.1,1874c-7.4,0-13.5-6.1-13.5-13.5s6.1-13.5,13.5-13.5s13.5,6.1,13.5,13.5S5668.6,1874,5661.1,1874z M5661.1,1854
				c-3.6,0-6.5,2.9-6.5,6.5s2.9,6.5,6.5,6.5s6.5-2.9,6.5-6.5S5664.7,1854,5661.1,1854z"/>
		</g>
		<g>
			<g>
				<path class="st1" d="M5661.1,1851.5c5,0,9,4,9,9s-4,9-9,9s-9-4-9-9S5656.1,1851.5,5661.1,1851.5 M5661.1,1849.5
					c-6.1,0-11,4.9-11,11l0,0c0,6.1,4.9,11,11,11s11-4.9,11-11l0,0C5672.1,1854.4,5667.2,1849.5,5661.1,1849.5L5661.1,1849.5z"/>
				<path d="M5661.1,1875c-8,0-14.5-6.5-14.5-14.5s6.5-14.5,14.5-14.5s14.5,6.5,14.5,14.5S5669.1,1875,5661.1,1875z M5661.1,1855
					c-3.1,0-5.5,2.4-5.5,5.5s2.4,5.5,5.5,5.5s5.5-2.4,5.5-5.5S5664.2,1855,5661.1,1855z"/>
			</g>
		</g>
	</g>
	<g>
		<g>
			<path class="st0" d="M5237.1,2467.5h-1c-4.4,0-8-3.6-8-8v-114c0-4.4,3.6-8,8-8h2"/>
			<path d="M5237.1,2471h-1c-6.3,0-11.5-5.2-11.5-11.5v-114c0-6.3,5.2-11.5,11.5-11.5h2v7h-2c-2.5,0-4.5,2-4.5,4.5v114
				c0,2.5,2,4.5,4.5,4.5h1V2471z"/>
		</g>
		<g>
			<path class="st1" d="M5237.1,2468.5h-1c-5,0-9-4-9-9v-114c0-5,4-9,9-9h2v2h-2c-3.9,0-7,3.1-7,7v114c0,3.9,3.2,7,7,7h1V2468.5z"/>
			<path d="M5240.6,2472h-4.5c-6.9,0-12.5-5.6-12.5-12.5v-114c0-6.9,5.6-12.5,12.5-12.5h5.5v9h-5.5c-2,0-3.5,1.5-3.5,3.5v114
				c0,1.9,1.6,3.5,3.5,3.5h4.5V2472z"/>
		</g>
	</g>
	<g>
		<g>
			<path class="st0" d="M5238.1,2312.5h-2c-4.4,0-8-3.6-8-8v-114c0-4.4,3.6-8,8-8h1"/>
			<path d="M5238.1,2316h-2c-6.3,0-11.5-5.2-11.5-11.5v-114c0-6.3,5.2-11.5,11.5-11.5h1v7h-1c-2.5,0-4.5,2-4.5,4.5v114
				c0,2.5,2,4.5,4.5,4.5h2V2316z"/>
		</g>
		<g>
			<path class="st1" d="M5238.1,2313.5h-2c-5,0-9-4-9-9v-114c0-5,4-9,9-9h1v2h-1c-3.9,0-7,3.1-7,7v114c0,3.9,3.2,7,7,7h2V2313.5z"/>
			<path d="M5241.6,2317h-5.5c-6.9,0-12.5-5.6-12.5-12.5v-114c0-6.9,5.6-12.5,12.5-12.5h4.5v9h-4.5c-2,0-3.5,1.5-3.5,3.5v114
				c0,1.9,1.6,3.5,3.5,3.5h5.5V2317z"/>
		</g>
	</g>
	<g>
		<g>
			<path class="st0" d="M5234.1,2100.5h-3c-2.2,0-4-1.8-4-4v-64c0-2.2,1.8-4,4-4h3"/>
			<path d="M5234.1,2104h-3c-4.1,0-7.5-3.4-7.5-7.5v-64c0-4.1,3.4-7.5,7.5-7.5h3v7h-3c-0.3,0-0.5,0.2-0.5,0.5v64
				c0,0.3,0.2,0.5,0.5,0.5h3V2104z"/>
		</g>
		<g>
			<path class="st1" d="M5234.1,2101.5h-3c-2.8,0-5-2.2-5-5v-64c0-2.8,2.2-5,5-5h3v2h-3c-1.7,0-3,1.3-3,3v64c0,1.7,1.3,3,3,3h3
				V2101.5z"/>
			<path d="M5237.6,2105h-6.5c-4.8,0-8.5-3.7-8.5-8.5v-64c0-4.8,3.7-8.5,8.5-8.5h6.5v9h-6v63h6V2105z"/>
		</g>
	</g>
	<g>
		<g>
			<path class="st0" d="M6085.1,2177.5h1c4.4,0,8,3.6,8,8v112c0,4.4-3.6,8-8,8h-1"/>
			<path d="M6086.1,2309h-1v-7h1c2.5,0,4.5-2,4.5-4.5v-112c0-2.5-2-4.5-4.5-4.5h-1v-7h1c6.3,0,11.5,5.2,11.5,11.5v112
				C6097.6,2303.9,6092.4,2309,6086.1,2309z"/>
		</g>
		<g>
			<path class="st1" d="M6086.1,2306.5h-1v-2h1c3.9,0,7-3.1,7-7v-112c0-3.9-3.2-7-7-7h-1v-2h1c5,0,9,4,9,9v112
				C6095.1,2302.5,6091.1,2306.5,6086.1,2306.5z"/>
			<path d="M6086.1,2310h-4.5v-9h4.5c2,0,3.5-1.5,3.5-3.5v-112c0-1.9-1.6-3.5-3.5-3.5h-4.5v-9h4.5c6.9,0,12.5,5.6,12.5,12.5v112
				C6098.6,2304.4,6093,2310,6086.1,2310z"/>
		</g>
	</g>
	<g id="Screen_8_">
		<g>
			<path class="st0" d="M5286.1,3352.5c-0.6,0-1-0.4-1-1v-1334c0-0.3,0.1-0.5,0.3-0.7s0.4-0.3,0.7-0.3h750c0.6,0,1,0.4,1,1v1334
				c0,0.6-0.4,1-1,1H5286.1z"/>
			<path d="M6036.1,3356h-750c-2.5,0-4.5-2-4.5-4.5v-1334c0-0.8,0.2-2.1,1.3-3.2c1.1-1.1,2.3-1.3,3.2-1.3h750c2.5,0,4.5,2,4.5,4.5
				v1334C6040.6,3354,6038.6,3356,6036.1,3356z M5288.6,3349h745V2020h-745V3349z"/>
		</g>
		<g>
			<path class="st1" d="M6036.1,2017.5v1334h-750v-1334H6036.1 M6036.1,2015.5h-750c-0.5,0-1,0.2-1.4,0.6s-0.6,0.9-0.6,1.4v1334
				c0,1.1,0.9,2,2,2h750c1.1,0,2-0.9,2-2v-1334C6038.1,2016.4,6037.2,2015.5,6036.1,2015.5L6036.1,2015.5z"/>
			<path d="M6036.1,3357h-750c-3,0-5.5-2.5-5.5-5.5v-1334c0-1.4,0.6-2.8,1.6-3.9c1.1-1.1,2.4-1.6,3.9-1.6h750c3,0,5.5,2.5,5.5,5.5
				v1334C6041.6,3354.6,6039.1,3357,6036.1,3357z M5289.6,3348h743V2021h-743V3348z"/>
		</g>
	</g>
</g>
</svg>
